<svg width="16" height="16" viewBox="0 0 16 16" fill="none" xmlns="http://www.w3.org/2000/svg">
<path d="M10.5054 2.95555C10.5569 2.90148 10.5972 2.83788 10.6239 2.76837C10.6507 2.69886 10.6633 2.62482 10.6612 2.55046C10.6591 2.4761 10.6422 2.40288 10.6116 2.33498C10.5809 2.26709 10.5371 2.20584 10.4826 2.15475C10.4281 2.10366 10.364 2.06371 10.2939 2.0372C10.2238 2.01069 10.1492 1.99812 10.0742 2.00023C9.99928 2.00233 9.92547 2.01906 9.85703 2.04946C9.78859 2.07986 9.72685 2.12334 9.67535 2.1774L4.82272 7.27441C4.72251 7.37956 4.66667 7.51878 4.66667 7.66348C4.66667 7.80819 4.72251 7.9474 4.82272 8.05256L9.67535 13.1501C9.72651 13.2054 9.78823 13.25 9.85693 13.2814C9.92562 13.3128 9.99992 13.3303 10.0755 13.333C10.1511 13.3356 10.2265 13.3234 10.2972 13.2969C10.368 13.2704 10.4327 13.2303 10.4877 13.1788C10.5427 13.1273 10.5868 13.0654 10.6175 12.9968C10.6482 12.9283 10.6649 12.8543 10.6665 12.7793C10.6682 12.7043 10.6548 12.6297 10.6271 12.5599C10.5995 12.4901 10.5581 12.4264 10.5054 12.3726L6.02275 7.66348L10.5054 2.95555Z" fill="#5D87FF"/>
</svg>
