<svg width="16" height="16" viewBox="0 0 16 16" fill="none" xmlns="http://www.w3.org/2000/svg">
<g clip-path="url(#clip0_422_124575)">
<path d="M4.6876 3.11984C4.6876 2.99961 4.73589 2.8843 4.82184 2.79928C4.90779 2.71427 5.02437 2.6665 5.14593 2.6665H10.6458C10.7674 2.6665 10.884 2.71427 10.9699 2.79928C11.0559 2.8843 11.1042 2.99961 11.1042 3.11984C11.1042 3.24007 11.0559 3.35538 10.9699 3.44039C10.884 3.52541 10.7674 3.57317 10.6458 3.57317H5.14593C5.02437 3.57317 4.90779 3.52541 4.82184 3.44039C4.73589 3.35538 4.6876 3.24007 4.6876 3.11984ZM4.81227 8.89077C4.96351 8.70944 5.29076 8.55984 5.60425 8.55984C5.84737 8.55984 6.08052 8.65536 6.25242 8.82539C6.42433 8.99543 6.52091 9.22604 6.52091 9.4665C6.52091 9.7521 6.43566 9.96154 6.28808 10.1012C6.14141 10.2435 5.86825 10.3732 5.37509 10.3732C5.25353 10.3732 5.13696 10.4209 5.051 10.5059C4.96505 10.591 4.91676 10.7063 4.91676 10.8265C4.91676 10.9467 4.96505 11.062 5.051 11.1471C5.13696 11.2321 5.25353 11.2798 5.37509 11.2798C5.86825 11.2798 6.1405 11.4095 6.28808 11.5518C6.43474 11.6915 6.52091 11.9009 6.52091 12.1865C6.52091 12.427 6.42433 12.6576 6.25242 12.8276C6.08052 12.9976 5.84737 13.0932 5.60425 13.0932C5.29076 13.0932 4.96351 12.9445 4.81227 12.7622C4.73496 12.6694 4.62354 12.6108 4.50251 12.5992C4.38149 12.5877 4.26078 12.6241 4.16694 12.7006C4.0731 12.7771 4.01381 12.8873 4.00213 13.007C3.99044 13.1267 4.0273 13.2461 4.10461 13.3389C4.45752 13.7623 5.06251 13.9998 5.60425 13.9998C6.09048 13.9998 6.55678 13.8088 6.9006 13.4687C7.24441 13.1287 7.43756 12.6674 7.43756 12.1865C7.43756 11.7205 7.29364 11.2508 6.92515 10.899L6.84448 10.8265C6.87198 10.8035 6.89887 10.7794 6.92515 10.754C7.29364 10.4022 7.43756 9.93253 7.43756 9.4665C7.43756 8.98558 7.24441 8.52435 6.9006 8.18428C6.55678 7.84422 6.09048 7.65317 5.60425 7.65317C5.06343 7.65317 4.45844 7.89072 4.10461 8.31413C4.06633 8.36009 4.03758 8.41306 4.01999 8.47001C4.00241 8.52696 3.99634 8.58677 4.00213 8.64605C4.00791 8.70532 4.02545 8.76288 4.05373 8.81545C4.08201 8.86802 4.12048 8.91456 4.16694 8.95242C4.21341 8.99029 4.26696 9.01873 4.32453 9.03612C4.38211 9.05351 4.44259 9.05952 4.50251 9.05379C4.62354 9.04223 4.73496 8.98359 4.81227 8.89077ZM10.4167 13.5465V8.86085L9.71544 9.22986C9.60871 9.28155 9.48586 9.29021 9.3728 9.25403C9.25974 9.21784 9.1653 9.13964 9.10942 9.0359C9.05353 8.93217 9.04056 8.81103 9.07325 8.69802C9.10594 8.58502 9.18172 8.48898 9.28461 8.43018L10.4093 7.83813C10.4442 7.82 10.4937 7.7937 10.5395 7.77466C10.6333 7.73357 10.7364 7.71793 10.8383 7.72933C10.916 7.73951 10.9907 7.76547 11.0577 7.80557C11.1248 7.84567 11.1827 7.89904 11.2279 7.96234C11.2861 8.04555 11.3209 8.14254 11.3288 8.24341C11.3333 8.29328 11.3333 8.34858 11.3333 8.38666V13.5465C11.3333 13.6667 11.285 13.782 11.1991 13.8671C11.1131 13.9521 10.9966 13.9998 10.875 13.9998C10.7535 13.9998 10.6369 13.9521 10.5509 13.8671C10.465 13.782 10.4167 13.6667 10.4167 13.5465Z" fill="#7C8FAC"/>
<path d="M9.40024 0.666504H6.59977C5.65075 0.666504 4.91051 0.666504 4.31781 0.714208C3.71561 0.762763 3.22644 0.863282 2.78644 1.08391C2.05573 1.45146 1.46166 2.03802 1.08942 2.7595C0.865103 3.19395 0.764162 3.67695 0.714985 4.27154C0.666672 4.85761 0.666672 5.5868 0.666672 6.52469V10.1417C0.666672 11.0787 0.666672 11.8096 0.714985 12.3948C0.764162 12.9894 0.865966 13.4724 1.08942 13.9068C1.46166 14.6283 2.05573 15.2149 2.78644 15.5824C3.22644 15.8039 3.71561 15.9036 4.31781 15.9521C4.91138 15.9998 5.64989 15.9998 6.59977 15.9998H9.40024C10.3493 15.9998 11.0895 15.9998 11.6822 15.9521C12.2844 15.9036 12.7736 15.8031 13.2136 15.5824C13.9443 15.2149 14.5383 14.6283 14.9106 13.9068C15.1349 13.4724 15.2358 12.9894 15.285 12.3948C15.3333 11.8096 15.3333 11.0795 15.3333 10.1417V6.52469C15.3333 5.58765 15.3333 4.85676 15.285 4.27154C15.2358 3.67695 15.134 3.19395 14.9106 2.7595C14.5383 2.03802 13.9443 1.45146 13.2136 1.08391C12.7736 0.86243 12.2844 0.762763 11.6822 0.714208C11.0886 0.666504 10.3501 0.666504 9.40024 0.666504ZM3.17726 1.84291C3.47577 1.69299 3.83812 1.6078 4.38769 1.5635C4.94157 1.51836 5.64644 1.51836 6.61961 1.51836H9.3804C10.3536 1.51836 11.0584 1.51836 11.6115 1.5635C12.161 1.6078 12.5234 1.69299 12.8219 1.84291C13.3903 2.12879 13.8524 2.58504 14.1419 3.14624C14.2937 3.44099 14.38 3.79876 14.4249 4.34139C14.4577 4.73069 14.4671 5.19495 14.4697 5.77761H1.52942C1.53287 5.19495 1.5415 4.72984 1.57428 4.34139C1.61914 3.79876 1.70542 3.44099 1.85726 3.14624C2.14679 2.58504 2.60888 2.12879 3.17726 1.84291ZM1.52942 6.62947H14.4706V10.1221C14.4706 11.0829 14.4706 11.7789 14.4249 12.3249C14.38 12.8676 14.2937 13.2254 14.1419 13.5201C13.8524 14.0813 13.3903 14.5375 12.8219 14.8234C12.5234 14.9734 12.161 15.0585 11.6123 15.1028C11.0584 15.148 10.3536 15.148 9.3804 15.148H6.61961C5.64644 15.148 4.94157 15.148 4.38855 15.1028C3.83899 15.0585 3.47663 14.9734 3.17812 14.8234C2.60975 14.5375 2.14766 14.0813 1.85812 13.5201C1.70628 13.2254 1.62001 12.8676 1.57514 12.3258C1.52942 11.7789 1.52942 11.0829 1.52942 10.1221V6.62947Z" fill="#7C8FAC"/>
</g>
<defs>
<clipPath id="clip0_422_124575">
<rect width="16" height="16" fill="white"/>
</clipPath>
</defs>
</svg>
