<svg width="19" height="15" viewBox="0 0 19 15" fill="none" xmlns="http://www.w3.org/2000/svg">
<path d="M15.4062 14.5H3.59375C2.86738 14.5 2.16852 14.2221 1.64055 13.7233C1.11257 13.2244 0.795499 12.5425 0.754375 11.8173L0.75 11.6562V2.46875C0.749939 1.96989 0.939259 1.48961 1.2797 1.12497C1.62014 0.760325 2.08631 0.538519 2.584 0.504375L2.71875 0.5H13.6562C14.1551 0.499939 14.6354 0.689258 15 1.0297C15.3647 1.37014 15.5865 1.83631 15.6206 2.334L15.625 2.46875V3.125H16.2812C16.7801 3.12494 17.2604 3.31426 17.625 3.6547C17.9897 3.99514 18.2115 4.46131 18.2456 4.959L18.25 5.09375V11.6562C18.25 12.3826 17.9721 13.0815 17.4733 13.6095C16.9744 14.1374 16.2925 14.4545 15.5673 14.4956L15.4062 14.5ZM3.59375 13.1875H15.4062C15.7907 13.1875 16.161 13.0428 16.4437 12.7823C16.7265 12.5218 16.9008 12.1645 16.9322 11.7814L16.9375 11.6562V5.09375C16.9375 4.93517 16.8801 4.78195 16.7758 4.66244C16.6716 4.54292 16.5276 4.46519 16.3705 4.44362L16.2812 4.4375H15.625V11.2188C15.625 11.3773 15.5676 11.5306 15.4633 11.6501C15.3591 11.7696 15.2151 11.8473 15.058 11.8689L14.9688 11.875C14.8102 11.875 14.6569 11.8176 14.5374 11.7133C14.4179 11.6091 14.3402 11.4651 14.3186 11.308L14.3125 11.2188V2.46875C14.3125 2.31017 14.2551 2.15695 14.1508 2.03744C14.0466 1.91792 13.9026 1.84019 13.7455 1.81862L13.6562 1.8125H2.71875C2.56017 1.81251 2.40695 1.86994 2.28744 1.97417C2.16792 2.07841 2.09019 2.22239 2.06862 2.3795L2.0625 2.46875V11.6562C2.06251 12.0405 2.20702 12.4108 2.46734 12.6935C2.72767 12.9762 3.08476 13.1506 3.46775 13.1822L3.59375 13.1875ZM9.71525 9.6875H12.3455C12.5118 9.68755 12.6718 9.75071 12.7933 9.86423C12.9148 9.97774 12.9887 10.1331 13 10.299C13.0114 10.4649 12.9593 10.6289 12.8544 10.7579C12.7494 10.8869 12.5995 10.9712 12.4347 10.9939L12.3455 11H9.71525C9.54898 10.9999 9.38893 10.9368 9.26743 10.8233C9.14594 10.7098 9.07206 10.5544 9.06073 10.3885C9.04939 10.2226 9.10145 10.0586 9.20638 9.92961C9.31131 9.80063 9.46128 9.71629 9.626 9.69362L9.71525 9.6875ZM7.08763 6.62937C7.26167 6.62937 7.42859 6.69851 7.55166 6.82159C7.67473 6.94466 7.74388 7.11158 7.74388 7.28562V10.3438C7.74388 10.5178 7.67473 10.6847 7.55166 10.8078C7.42859 10.9309 7.26167 11 7.08763 11H4.0295C3.85545 11 3.68853 10.9309 3.56546 10.8078C3.44239 10.6847 3.37325 10.5178 3.37325 10.3438V7.28562C3.37325 7.11158 3.44239 6.94466 3.56546 6.82159C3.68853 6.69851 3.85545 6.62937 4.0295 6.62937H7.08763ZM6.43138 7.94187H4.68575V9.6875H6.43138V7.94187ZM9.71525 6.62937H12.3455C12.5118 6.62943 12.6718 6.69259 12.7933 6.8061C12.9148 6.91961 12.9887 7.07501 13 7.2409C13.0114 7.40678 12.9593 7.57078 12.8544 7.69976C12.7494 7.82874 12.5995 7.91309 12.4347 7.93575L12.3455 7.94187H9.71525C9.5478 7.94358 9.38602 7.8812 9.26306 7.76751C9.1401 7.65383 9.06526 7.49743 9.05385 7.33036C9.04244 7.16328 9.09534 6.99817 9.20171 6.86883C9.30808 6.73948 9.45987 6.6557 9.626 6.63462L9.71525 6.62937ZM4.0295 3.56425H12.3455C12.513 3.56255 12.6747 3.62493 12.7977 3.73861C12.9206 3.8523 12.9955 4.00869 13.0069 4.17577C13.0183 4.34284 12.9654 4.50795 12.859 4.6373C12.7527 4.76664 12.6009 4.85043 12.4347 4.8715L12.3455 4.87675H4.0295C3.86323 4.8767 3.70318 4.81354 3.58168 4.70002C3.46019 4.58651 3.38631 4.43111 3.37498 4.26523C3.36364 4.09935 3.4157 3.93534 3.52063 3.80636C3.62556 3.67738 3.77553 3.59304 3.94025 3.57037L4.0295 3.56425Z" fill="#4570EA"/>
</svg>
