<svg width="20" height="21" viewBox="0 0 20 21" fill="none" xmlns="http://www.w3.org/2000/svg">
<g clip-path="url(#clip0_422_82855)">
<path d="M10 6.5L15.3333 9.16667V19.8333H4.66667V9.16667L10 6.5ZM10 6.5V0.5M0 19.8333H20M2 19.8333V11.8333H4.66667M18 19.8333V11.8333H15.3333M8.66667 19.8333V15.8333H11.3333V19.8333M10 1.16667H14V3.83333H10M10 13.1667C9.64638 13.1667 9.30724 13.0262 9.05719 12.7761C8.80714 12.5261 8.66667 12.187 8.66667 11.8333C8.66667 11.4797 8.80714 11.1406 9.05719 10.8905C9.30724 10.6405 9.64638 10.5 10 10.5C10.3536 10.5 10.6928 10.6405 10.9428 10.8905C11.1929 11.1406 11.3333 11.4797 11.3333 11.8333C11.3333 12.187 11.1929 12.5261 10.9428 12.7761C10.6928 13.0262 10.3536 13.1667 10 13.1667Z" stroke="#4570EA" stroke-width="1.2"/>
</g>
<defs>
<clipPath id="clip0_422_82855">
<rect width="20" height="20" fill="white" transform="translate(0 0.5)"/>
</clipPath>
</defs>
</svg>
