<svg width="32" height="32" viewBox="0 0 32 32" fill="none" xmlns="http://www.w3.org/2000/svg">
<path d="M26.0668 27.4333L17.6668 19.0667C17.0001 19.6222 16.2334 20.0556 15.3668 20.3667C14.5001 20.6778 13.6112 20.8333 12.7001 20.8333C10.4112 20.8333 8.47789 20.0444 6.90011 18.4667C5.32234 16.8889 4.53345 14.9556 4.53345 12.6667C4.53345 10.4 5.32234 8.472 6.90011 6.88267C8.47789 5.29422 10.4112 4.5 12.7001 4.5C14.9668 4.5 16.889 5.28889 18.4668 6.86667C20.0446 8.44444 20.8334 10.3778 20.8334 12.6667C20.8334 13.6222 20.6779 14.5333 20.3668 15.4C20.0557 16.2667 19.6334 17.0222 19.1001 17.6667L27.4668 26.0333L26.0668 27.4333ZM12.7001 18.8333C14.4112 18.8333 15.8614 18.2333 17.0508 17.0333C18.2392 15.8333 18.8334 14.3778 18.8334 12.6667C18.8334 10.9556 18.2392 9.5 17.0508 8.3C15.8614 7.1 14.4112 6.5 12.7001 6.5C10.9668 6.5 9.50589 7.1 8.31745 8.3C7.12811 9.5 6.53345 10.9556 6.53345 12.6667C6.53345 14.3778 7.12811 15.8333 8.31745 17.0333C9.50589 18.2333 10.9668 18.8333 12.7001 18.8333Z" fill="#5A6A85"/>
</svg>
